<?xml version="1.0" standalone="no"?>
<!DOCTYPE svg PUBLIC "-//W3C//DTD SVG 20010904//EN"
 "http://www.w3.org/TR/2001/REC-SVG-20010904/DTD/svg10.dtd">
<svg version="1.0" xmlns="http://www.w3.org/2000/svg"
 width="48.000000pt" height="48.000000pt" viewBox="0 0 48.000000 48.000000"
 preserveAspectRatio="xMidYMid meet">
<metadata>
Created by leo
</metadata>
<g transform="translate(0.000000,48.000000) scale(0.050000,-0.050000)"
fill="#ef7b47" stroke="none">
<path d="M318 781 c-304 -319 -221 -702 150 -701 361 2 440 379 146 693 -145
156 -155 156 -296 8z m177 -165 c-6 -20 -165 -74 -220 -76 -49 -1 -3 56 60 74
107 30 170 31 160 2z m168 -46 c0 -14 -309 -115 -398 -129 -3 -1 -5 11 -5 26
0 48 401 151 403 103z m-7 -100 c-5 -19 -192 -77 -331 -103 -98 -18 -81 27 20
54 47 12 126 34 175 49 99 31 145 30 136 0z m24 -86 c0 -14 -362 -125 -407
-124 -9 0 -13 11 -8 24 15 45 415 141 415 100z m0 -83 c0 -31 -70 -60 -174
-74 -81 -10 -92 -8 -70 15 43 46 244 94 244 59z"/>
</g>
</svg>
